<svg data-v-70b83f88="" version="1.0" xmlns="http://www.w3.org/2000/svg" width="100%" height="100%"
     viewBox="0 0 340.000000 250.000000" preserveAspectRatio="xMidYMid meet" color-interpolation-filters="sRGB"
     style="margin: auto;">
    <rect x="0" y="0" width="100%" height="100%" fill="#ffffff" fill-opacity="0"
          class="background"></rect>

    <g fill="#333333" class="iconlinesvg-g iconlinesvg"
       transform="translate(80.41314744949341,106.61665344238281)">
        <g class="tp-name" opacity="1" transform="matrix(1,0,0,1,0,0)">
            <g transform="translate(0, 0)">
                <g fill="#333333" transform="scale(1)">
                    <path d="M8.77 0L3.95 0L3.95-27.43L6.71-27.43Q7.50-27.43 7.80-27.13Q8.10-26.83 8.20-26.10L8.20-26.10L8.53-21.82Q9.94-24.69 12.01-26.30Q14.08-27.91 16.87-27.91L16.87-27.91Q18.00-27.91 18.92-27.66Q19.85-27.40 20.63-26.94L20.63-26.94L20.01-23.34Q19.82-22.66 19.17-22.66L19.17-22.66Q18.79-22.66 18.00-22.92Q17.22-23.18 15.81-23.18L15.81-23.18Q13.29-23.18 11.60-21.71Q9.91-20.25 8.77-17.46L8.77-17.46L8.77 0Z"
                          transform="translate(-3.9528084606345475, 36.33334900117509)"></path>
                </g>
            </g>
            <g transform="translate(20, 0)">
                <g fill="#333333" transform="scale(1)">
                    <path d="M14.81-27.86L14.81-27.86Q17.27-27.86 19.36-27.03Q21.44-26.21 22.96-24.65Q24.47-23.09 25.33-20.81Q26.18-18.52 26.18-15.59L26.18-15.59Q26.18-14.46 25.94-14.08Q25.69-13.70 25.02-13.70L25.02-13.70L6.77-13.70Q6.82-11.10 7.47-9.18Q8.12-7.26 9.26-5.97Q10.40-4.68 11.97-4.05Q13.54-3.41 15.49-3.41L15.49-3.41Q17.30-3.41 18.61-3.83Q19.93-4.25 20.87-4.74Q21.82-5.23 22.46-5.64Q23.09-6.06 23.55-6.06L23.55-6.06Q24.15-6.06 24.47-5.60L24.47-5.60L25.83-3.84Q24.94-2.76 23.69-1.96Q22.44-1.16 21.02-0.65Q19.60-0.14 18.09 0.12Q16.57 0.38 15.08 0.38L15.08 0.38Q12.24 0.38 9.84-0.58Q7.45-1.54 5.70-3.40Q3.95-5.25 2.98-7.99Q2.00-10.72 2.00-14.27L2.00-14.27Q2.00-17.14 2.88-19.63Q3.76-22.12 5.41-23.95Q7.07-25.77 9.45-26.82Q11.83-27.86 14.81-27.86ZM14.92-24.31L14.92-24.31Q11.43-24.31 9.42-22.30Q7.42-20.28 6.93-16.70L6.93-16.70L21.85-16.70Q21.85-18.38 21.39-19.78Q20.93-21.17 20.03-22.19Q19.14-23.20 17.86-23.76Q16.57-24.31 14.92-24.31Z"
                          transform="translate(-2.003478260869565, 36.33334900117509)"></path>
                </g>
            </g>
            <g transform="translate(48, 0)">
                <g fill="#333333" transform="scale(1)">
                    <path d="M20.74-24.66L19.66-22.90Q19.33-22.31 18.65-22.31L18.65-22.31Q18.25-22.31 17.73-22.61Q17.22-22.90 16.47-23.27Q15.73-23.64 14.70-23.95Q13.67-24.26 12.26-24.26L12.26-24.26Q11.05-24.26 10.07-23.95Q9.10-23.64 8.41-23.09Q7.72-22.55 7.35-21.84Q6.99-21.12 6.99-20.28L6.99-20.28Q6.99-19.22 7.59-18.52Q8.20-17.81 9.21-17.30Q10.21-16.79 11.48-16.39Q12.75-16.00 14.09-15.55Q15.43-15.11 16.70-14.57Q17.98-14.02 18.98-13.21Q19.98-12.40 20.59-11.22Q21.20-10.04 21.20-8.39L21.20-8.39Q21.20-6.50 20.52-4.89Q19.85-3.28 18.52-2.10Q17.19-0.92 15.27-0.24Q13.35 0.43 10.83 0.43L10.83 0.43Q7.96 0.43 5.63-0.50Q3.30-1.43 1.68-2.90L1.68-2.90L2.82-4.74Q3.03-5.09 3.33-5.28Q3.63-5.47 4.12-5.47L4.12-5.47Q4.60-5.47 5.14-5.09Q5.69-4.71 6.46-4.25Q7.23-3.79 8.33-3.41Q9.42-3.03 11.07-3.03L11.07-3.03Q12.48-3.03 13.54-3.40Q14.59-3.76 15.30-4.39Q16.00-5.01 16.34-5.82Q16.68-6.63 16.68-7.55L16.68-7.55Q16.68-8.69 16.07-9.44Q15.46-10.18 14.46-10.71Q13.46-11.24 12.17-11.63Q10.88-12.02 9.54-12.45Q8.20-12.89 6.92-13.44Q5.63-14.00 4.63-14.84Q3.63-15.68 3.02-16.91Q2.41-18.14 2.41-19.90L2.41-19.90Q2.41-21.47 3.06-22.92Q3.71-24.37 4.95-25.46Q6.20-26.56 8.01-27.21Q9.83-27.86 12.16-27.86L12.16-27.86Q14.86-27.86 17.02-27.01Q19.17-26.15 20.74-24.66L20.74-24.66Z"
                          transform="translate(-1.678589894242068, 36.33334900117509)"></path>
                </g>
            </g>
            <g transform="translate(71, 0)">
                <g fill="#333333" transform="scale(1)">
                    <path d="M12.26 0.43L12.26 0.43Q9.02 0.43 7.27-1.38Q5.52-3.19 5.52-6.61L5.52-6.61L5.52-23.39L2.22-23.39Q1.79-23.39 1.49-23.65Q1.19-23.91 1.19-24.45L1.19-24.45L1.19-26.37L5.69-26.94L6.80-35.41Q6.85-35.82 7.15-36.08Q7.45-36.33 7.91-36.33L7.91-36.33L10.34-36.33L10.34-26.88L18.19-26.88L18.19-23.39L10.34-23.39L10.34-6.93Q10.34-5.20 11.18-4.36Q12.02-3.52 13.35-3.52L13.35-3.52Q14.11-3.52 14.66-3.72Q15.22-3.93 15.62-4.17Q16.03-4.41 16.31-4.62Q16.60-4.82 16.81-4.82L16.81-4.82Q17.19-4.82 17.49-4.36L17.49-4.36L18.90-2.06Q17.65-0.89 15.89-0.23Q14.13 0.43 12.26 0.43Z"
                          transform="translate(-1.1912573443008225, 36.33334900117509)"></path>
                </g>
            </g>
            <g transform="translate(92, 0.6162840018433826)">
                <g>
                    <g class="imagesvg">
                        <g>
                            <rect fill="#333333" fill-opacity="0" stroke-width="2" x="0" y="0"
                                  width="33.810923499893086" height="35.53396548632499" class="image-rect"></rect>
                            <svg x="0" y="0" width="33.810923499893086" height="35.53396548632499"
                                 class="image-svg-svg primary" style="overflow: visible;">
                                <svg xmlns="http://www.w3.org/2000/svg"
                                     viewBox="0.000019073486328125 0 195.5634002685547 205.52999877929688">
                                    <g>
                                        <g>
                                            <path d="M156.44 38.73a70 70 0 0 0-12.63-4.14A28.64 28.64 0 0 1 133.72 45a26.71 26.71 0 0 1 4.82 1.87c1.39.72 2.73 1.43 4 2.11 9.82 5.19 19 8 23.12 6.73a20 20 0 0 0 4.52-2s-1.9 5.74-4.62 8.24c-1.23 1.13-15 16.46-42.32 7.68a51.43 51.43 0 0 1-9.57-4.47 16.06 16.06 0 0 1-.14 3.05C111.85 80.63 95.83 95 95.15 95.62l-2.52 2.24-1.5-3c-.36-.72-8.15-16.59-6.58-27.7q-3.25 1.75-7.05 3.53a34 34 0 0 1-14.56 3.45c-18.06 0-29.12-15.85-29.47-16.38-2.86-4.24-2.45-6-2.45-6a40.74 40.74 0 0 0 5.1 2.48c6.65 2.62 12.79.57 23-6 1.22-.78 2.49-1.58 3.81-2.4a24.82 24.82 0 0 1 6.43-2.73 27.8 27.8 0 0 1-8.53-9.73 61.05 61.05 0 0 0-21.73 5.34C10 51.2-2.43 79.09.39 112.78c4.13 49.29 34.61 92.75 97.39 92.75s93.26-43.46 97.39-92.75c2.83-33.69-9.56-61.58-38.73-74.05zM166.95 149c-1.45 3.58-4.94 5.68-7.78 4.7s-4-4.68-2.53-8.26 4.94-5.68 7.78-4.7 3.98 4.68 2.53 8.26zm13.43-38c-1.5 12.18-8.55 23-13.18 22.59s-.67-8.39-.77-20.83-3.67-22.09 1.19-26.16c9.38-7.88 14.72 8.47 12.75 24.4z"
                                                  fill="#d52149"></path>
                                            <path d="M124.68 64.8a36.25 36.25 0 0 0 34.52-4.1c-6.19-.34-12.13-3.47-19-7.12-1.28-.68-2.6-1.37-4-2.08a52 52 0 0 0-11.11-3.63c-2.86-.54-9.28-1-9.28-1a49.41 49.41 0 0 1 9.28-3.61c13.26-3.63 17-15.36 18.05-22.27-3.28 1.67-8.49 3.39-16.78 4.65a32.71 32.71 0 0 0-17.43 8.22A22.78 22.78 0 0 0 105 40s.29-10.95 1.29-15.19C108 17.5 114 5.83 117.65.89L107.51 0c-9 11.31-10.38 21.79-10.6 32.2a73.71 73.71 0 0 0 .43 7.51s-2.57-3.1-3.56-4.24-6.07-6.81-12.92-8.67c-9.11-2.46-15.16-4-19-6.8a37.8 37.8 0 0 0 1.34 5.76c2.59 8.11 7.73 13.69 14.69 15.91s9.59 3.89 9.59 3.89a75.7 75.7 0 0 0-9.5.27 39.22 39.22 0 0 0-12.29 4.39c-1.3.81-2.55 1.6-3.76 2.37-6.81 4.33-12.63 8-18.79 8.21 6.23 5.58 17.54 12.1 32.17 5.2 4.89-2.3 10.87-5.63 12.52-6.61l5.31-3.17s-1.31 3-1.92 4.67a45.54 45.54 0 0 0-1.45 5.63c-1 6.45 1.9 16.59 4.51 22.78 4.41-4.41 12.45-12.75 14-21.17a17.37 17.37 0 0 0-.54-7.51c-.7-1.93-1.14-3.62-1.14-3.62s2.54 1 5.36 2.36 6.9 3.17 12.72 5.44z"
                                                  fill="#83cc92"></path>
                                        </g>
                                    </g>
                                </svg>
                            </svg> <!---->
                        </g>
                    </g>
                </g>
            </g>
            <g transform="translate(129, 0)">
                <g fill="#333333" transform="scale(1)">
                    <path d="M8.77 0L3.95 0L3.95-27.43L6.82-27.43Q7.85-27.43 8.12-26.42L8.12-26.42L8.50-23.45Q10.29-25.42 12.49-26.64Q14.70-27.86 17.60-27.86L17.60-27.86Q19.85-27.86 21.56-27.11Q23.28-26.37 24.43-25.00Q25.58-23.64 26.18-21.71Q26.78-19.79 26.78-17.46L26.78-17.46L26.78 0L21.96 0L21.96-17.46Q21.96-20.58 20.54-22.30Q19.11-24.01 16.19-24.01L16.19-24.01Q14.05-24.01 12.20-22.99Q10.34-21.96 8.77-20.20L8.77-20.20L8.77 0Z"
                          transform="translate(-3.9528084606345475, 36.33334900117509)"></path>
                </g>
            </g>
            <g transform="translate(155, 0)">
                <g fill="#333333" transform="scale(1)">
                    <path d="M14.81-27.86L14.81-27.86Q17.27-27.86 19.36-27.03Q21.44-26.21 22.96-24.65Q24.47-23.09 25.33-20.81Q26.18-18.52 26.18-15.59L26.18-15.59Q26.18-14.46 25.94-14.08Q25.69-13.70 25.02-13.70L25.02-13.70L6.77-13.70Q6.82-11.10 7.47-9.18Q8.12-7.26 9.26-5.97Q10.40-4.68 11.97-4.05Q13.54-3.41 15.49-3.41L15.49-3.41Q17.30-3.41 18.61-3.83Q19.93-4.25 20.87-4.74Q21.82-5.23 22.46-5.64Q23.09-6.06 23.55-6.06L23.55-6.06Q24.15-6.06 24.47-5.60L24.47-5.60L25.83-3.84Q24.94-2.76 23.69-1.96Q22.44-1.16 21.02-0.65Q19.60-0.14 18.09 0.12Q16.57 0.38 15.08 0.38L15.08 0.38Q12.24 0.38 9.84-0.58Q7.45-1.54 5.70-3.40Q3.95-5.25 2.98-7.99Q2.00-10.72 2.00-14.27L2.00-14.27Q2.00-17.14 2.88-19.63Q3.76-22.12 5.41-23.95Q7.07-25.77 9.45-26.82Q11.83-27.86 14.81-27.86ZM14.92-24.31L14.92-24.31Q11.43-24.31 9.42-22.30Q7.42-20.28 6.93-16.70L6.93-16.70L21.85-16.70Q21.85-18.38 21.39-19.78Q20.93-21.17 20.03-22.19Q19.14-23.20 17.86-23.76Q16.57-24.31 14.92-24.31Z"
                          transform="translate(-2.003478260869565, 36.33334900117509)"></path>
                </g>
            </g>
        </g> <!---->
    </g>
</svg>
